<svg id="Layer_1" xmlns="http://www.w3.org/2000/svg" viewBox="0 0 29.5 24"><style>.st0{fill:#b3b3b3}.st1{fill:#999}.st2{fill:#27a9e0}.st3{fill:#3b5998}.st4{fill:#d34836}</style><g id="XMLID_587_"><path id="XMLID_636_" class="st0" d="M-102.6-151.9v3.3c0 .5-.4.8-.8.8-1.6 0-2.5 1.7-2.6 4.9h2.6c.5 0 .8.4.8.8v7c0 .5-.4.8-.8.8h-7c-.5 0-.8-.4-.8-.8v-7c0-1.6.2-3 .5-4.3.3-1.3.8-2.4 1.5-3.4s1.5-1.7 2.5-2.3c1-.5 2.1-.8 3.4-.8.4.2.7.5.7 1zm10.6 4.1c.5 0 .8-.4.8-.8v-3.3c0-.5-.4-.8-.8-.8-1.3 0-2.4.3-3.4.8s-1.8 1.3-2.5 2.3c-.6.9-1.1 2.1-1.5 3.4-.3 1.3-.5 2.7-.5 4.3v7c0 .5.4.8.8.8h7c.5 0 .8-.4.8-.8v-7c0-.5-.4-.8-.8-.8h-2.6c.3-3.4 1.1-5.1 2.7-5.1z"/></g><g id="XMLID_384_"><g id="XMLID_387_"><path id="XMLID_401_" class="st1" d="M29.5 2.8c-1.1.5-2.3.8-3.5 1 1.3-.7 2.2-1.9 2.7-3.4-1.2.7-2.5 1.2-3.9 1.5C23.8.7 22.2 0 20.5 0c-3.3 0-6.1 2.7-6.1 6.1 0 .5.1.9.2 1.4C9.5 7.2 5 4.8 2.1 1.1c-.6.9-.9 1.9-.9 3.1 0 2.1 1.1 4 2.7 5-1 0-1.9-.3-2.7-.8v.1c0 2.9 2.1 5.4 4.9 5.9-.5.1-1 .2-1.6.2-.4 0-.8 0-1.1-.1.8 2.4 3 4.2 5.7 4.2-2.1 1.6-4.7 2.6-7.5 2.6-.5 0-1 0-1.4-.1C2.7 23 5.9 24 9.3 24c11.1 0 17.2-9.2 17.2-17.2V6c1.2-.9 2.2-1.9 3-3.2z"/></g></g><g id="XMLID_371_"><path id="Facebook_1_" class="st1" d="M-131 4.6v3.3h-2.4v4h2.4v12h5V12h3.3s.3-1.9.5-4.1h-3.8V5.1c0-.4.5-1 1.1-1h2.7V-.1h-3.7c-5.2.1-5.1 4.1-5.1 4.7z"/></g><g id="XMLID_300_"><g id="XMLID_301_"><g id="XMLID_313_"><path id="XMLID_346_" class="st1" d="M163.1 10.7h-11.2v3.7h6.8c-1 3.2-4.1 5.6-7.6 5.6-4.4 0-8-3.6-8-8s3.6-8 8-8c2.2 0 4.2.9 5.7 2.4l2.7-2.9c-2.2-2.1-5.1-3.4-8.4-3.4-6.6 0-12 5.4-12 12s5.4 12 12 12c5.8 0 10.9-4.1 12-9.6v-3.8z"/><path id="XMLID_314_" class="st1" d="M170.3 10.7H168V8.4h-1.9v2.3h-2.3v1.9h2.3v2.3h1.9v-2.3h2.3z"/></g></g></g><g id="XMLID_342_"><g id="XMLID_17_"><path id="XMLID_18_" class="st2" d="M29.5 106.8c-1.1.5-2.3.8-3.5 1 1.3-.7 2.2-1.9 2.7-3.4-1.2.7-2.5 1.2-3.9 1.5-1.1-1.2-2.7-1.9-4.4-1.9-3.3 0-6.1 2.7-6.1 6.1 0 .5.1.9.2 1.4-5-.3-9.5-2.7-12.5-6.3-.5.9-.8 1.9-.8 3 0 2.1 1.1 4 2.7 5-1 0-1.9-.3-2.7-.8v.1c0 2.9 2.1 5.4 4.9 5.9-.5.1-1 .2-1.6.2-.4 0-.8 0-1.1-.1.8 2.4 3 4.2 5.7 4.2-2.1 1.6-4.7 2.6-7.5 2.6-.5 0-1 0-1.4-.1 2.7 1.7 5.9 2.7 9.3 2.7 11.1 0 17.2-9.2 17.2-17.2v-.8c1-.8 2-1.8 2.8-3.1z"/></g></g><g id="XMLID_337_"><path id="Facebook_9_" class="st3" d="M-131 108.6v3.3h-2.4v4h2.4v12h5v-12h3.3s.3-1.9.5-4.1h-3.8V109c0-.4.5-1 1.1-1h2.7v-4.2h-3.7c-5.2.2-5.1 4.2-5.1 4.8z"/></g><g id="XMLID_428_"><g id="XMLID_296_"><g id="XMLID_297_"><path id="XMLID_305_" class="st4" d="M163.1 114.7h-11.2v3.7h6.8c-1 3.2-4.1 5.6-7.6 5.6-4.4 0-8-3.6-8-8s3.6-8 8-8c2.2 0 4.2.9 5.7 2.4l2.7-2.9c-2.2-2.1-5.1-3.4-8.4-3.4-6.6 0-12 5.4-12 12s5.4 12 12 12c5.8 0 10.9-4.1 12-9.6v-3.8z"/><path id="XMLID_1220_" class="st4" d="M170.3 114.7H168v-2.3h-1.9v2.3h-2.3v1.9h2.3v2.3h1.9v-2.3h2.3z"/></g></g></g></svg>